<?xml version="1.0" standalone="no"?>
<!DOCTYPE svg PUBLIC "-//W3C//DTD SVG 20010904//EN"
 "http://www.w3.org/TR/2001/REC-SVG-20010904/DTD/svg10.dtd">
<svg version="1.0" xmlns="http://www.w3.org/2000/svg"
 width="320.000000pt" height="320.000000pt" viewBox="0 0 320.000000 320.000000"
 preserveAspectRatio="xMidYMid meet">
<metadata>
Created by potrace 1.11, written by Peter Selinger 2001-2013
</metadata>
<g transform="translate(0.000000,320.000000) scale(0.100000,-0.100000)"
fill="#000000" stroke="none">
<path d="M0 1600 l0 -1600 1600 0 1600 0 0 1600 0 1600 -1600 0 -1600 0 0
-1600z m1719 1339 c122 -18 279 -66 399 -125 61 -30 112 -58 112 -62 -1 -4
-48 -37 -105 -74 -76 -48 -105 -73 -105 -87 0 -11 40 -82 90 -158 49 -75 87
-139 85 -141 -2 -2 -32 10 -67 27 -87 43 -159 61 -247 61 -84 0 -195 -26 -188
-45 3 -6 67 -105 142 -220 l137 -209 -33 -29 c-83 -70 -100 -80 -144 -82 -74
-3 -116 -57 -94 -122 11 -36 51 -63 91 -63 34 0 68 27 86 69 l16 36 6 -46 c4
-39 15 -59 65 -117 l60 -71 75 5 c41 3 87 10 103 14 26 9 30 6 95 -96 68 -104
68 -105 87 -84 18 20 19 20 60 -52 l41 -73 -23 -50 c-28 -62 -29 -87 -3 -110
14 -13 20 -31 20 -64 0 -31 10 -66 30 -106 16 -33 30 -74 30 -92 0 -17 6 -33
13 -36 18 -7 -122 -146 -222 -222 -46 -35 -132 -88 -190 -118 -186 -96 -326
-133 -549 -146 -380 -23 -703 86 -997 335 -166 141 -327 379 -394 584 -53 162
-87 438 -67 543 7 36 8 37 50 37 23 0 51 7 62 15 19 14 19 14 -4 30 -13 10
-35 41 -49 71 l-25 54 26 83 c32 100 46 125 46 81 0 -23 6 -34 25 -42 22 -10
25 -18 25 -59 0 -83 68 -189 101 -156 6 6 -2 34 -21 74 -31 66 -39 114 -18
107 6 -2 16 -17 20 -34 5 -16 20 -51 34 -79 13 -27 28 -69 34 -91 6 -23 19
-53 31 -67 24 -31 89 -51 136 -42 29 5 35 3 40 -13 3 -14 19 -24 51 -32 34 -8
58 -23 88 -57 37 -39 48 -46 95 -51 l54 -7 3 -40 c3 -34 -1 -43 -29 -66 -27
-22 -33 -35 -40 -88 l-9 -61 51 -63 c27 -34 52 -72 55 -84 3 -12 14 -25 23
-28 10 -3 38 -19 64 -35 l47 -30 0 -114 c0 -74 4 -117 11 -122 7 -4 10 -26 6
-59 -4 -41 -1 -59 14 -84 12 -20 19 -50 19 -83 0 -67 30 -130 93 -190 41 -41
54 -48 87 -48 51 0 58 15 25 50 -24 25 -27 34 -21 68 5 36 4 40 -19 46 -25 6
-34 30 -15 41 6 3 10 15 10 26 0 10 -4 19 -10 19 -5 0 -10 6 -10 13 0 7 26 21
57 32 52 18 63 28 120 102 61 81 62 83 56 133 -7 59 6 80 51 80 27 0 96 32 96
44 0 3 5 40 11 83 8 59 18 87 40 117 34 47 38 82 9 91 -11 3 -29 19 -40 36
-19 26 -27 29 -78 30 -31 0 -79 8 -107 18 -47 17 -50 20 -57 61 -10 56 -32 80
-76 80 -30 0 -43 8 -83 53 -35 38 -51 49 -57 39 -14 -21 -79 -18 -105 6 -12
11 -38 23 -57 27 -31 6 -39 2 -73 -33 -22 -22 -46 -38 -55 -36 -10 1 -34 6
-54 9 -36 6 -38 8 -38 45 0 58 -15 90 -43 90 -33 0 -36 6 -24 46 13 43 4 53
-31 31 -56 -37 -90 -47 -117 -37 -36 14 -46 47 -27 95 32 84 86 114 205 115
76 0 77 0 77 -25 0 -18 7 -28 26 -35 37 -14 37 -14 30 29 -6 38 -4 42 35 73
47 37 78 68 129 129 19 23 58 59 87 80 28 21 64 50 79 64 17 16 34 23 46 20
34 -12 41 7 12 30 -26 21 -27 24 -10 31 11 4 29 0 46 -10 22 -12 34 -14 55 -6
38 14 62 13 47 -2 -24 -24 -13 -47 26 -57 49 -14 52 -14 52 4 0 9 -13 24 -30
33 -36 21 -37 26 -5 40 15 7 25 20 25 32 0 11 -11 27 -25 36 -20 13 -25 25
-25 55 0 22 -2 39 -4 39 -2 0 -20 -7 -39 -15 -50 -21 -57 -19 -57 14 0 20 -6
31 -17 34 -91 25 -110 16 -119 -54 -6 -44 -10 -51 -39 -63 -18 -8 -42 -28 -54
-45 -27 -37 -41 -32 -41 14 0 31 -3 34 -39 40 -44 7 -75 34 -69 61 4 22 100
81 146 90 25 5 32 3 32 -10 0 -9 6 -16 13 -16 16 1 47 25 47 38 0 14 78 58
118 65 34 7 72 -6 72 -23 0 -5 -18 -19 -41 -30 -23 -12 -39 -24 -36 -26 3 -3
29 -12 58 -19 50 -14 55 -13 69 4 8 10 28 21 43 25 34 8 47 35 24 48 -10 5
-17 18 -17 29 0 15 -15 27 -57 46 -99 45 -202 29 -213 -32 -4 -22 -11 -30 -25
-30 -25 0 -32 37 -10 55 8 7 15 16 15 21 0 10 -70 12 -94 3 -19 -7 -21 -31 -4
-36 21 -7 0 -38 -26 -38 -14 0 -28 -4 -31 -10 -3 -5 -23 -10 -44 -10 -30 0
-40 4 -44 20 -4 17 0 20 23 20 31 0 90 43 77 56 -4 4 -21 0 -36 -9 -40 -23
-63 -21 -91 8 -30 32 -89 34 -136 4 -42 -25 -43 -39 -5 -39 20 0 30 -6 34 -20
3 -12 14 -20 25 -20 27 0 52 -10 52 -21 0 -10 -82 0 -90 11 -8 11 -101 40
-129 40 l-26 0 25 20 c45 34 233 127 320 158 211 74 432 94 669 61z m860 -263
l91 -139 -183 -120 c-100 -66 -187 -121 -193 -124 -9 -3 -194 269 -194 285 1
12 375 251 382 244 3 -4 47 -70 97 -146z m-1801 -48 c-5 -15 -78 -24 -78 -9 0
12 18 19 53 20 19 1 27 -3 25 -11z m2263 -106 c42 -64 84 -129 93 -143 l17
-27 -135 -86 c-75 -48 -213 -137 -308 -199 -95 -62 -178 -116 -184 -120 -15
-9 -200 271 -187 283 11 11 617 409 623 409 3 0 39 -52 81 -117z m-2266 27
c-4 -5 -20 -9 -38 -9 -33 0 -28 15 8 22 24 5 37 0 30 -13z m115 -138 c0 -23
-14 -41 -30 -41 -19 0 -34 25 -24 41 7 12 54 12 54 0z m119 -105 c15 -17 -5
-26 -60 -26 -43 0 -52 16 -16 30 33 13 63 12 76 -4z m1011 -16 c191 -56 377
-267 431 -490 18 -76 16 -204 -6 -264 -17 -49 -63 -131 -70 -124 -2 1 -134
203 -294 448 l-291 445 38 6 c51 8 115 1 192 -21z m-1694 -8 c-17 -16 -18 -16
-5 5 7 12 15 20 18 17 3 -2 -3 -12 -13 -22z m724 8 c0 -5 -2 -10 -4 -10 -3 0
-8 5 -11 10 -3 6 -1 10 4 10 6 0 11 -4 11 -10z m-89 -48 c-5 -10 -18 -26 -30
-36 -20 -18 -21 -18 -27 -1 -5 13 1 25 20 42 30 25 52 23 37 -5z m84 7 c0 -7
-8 -15 -17 -17 -18 -3 -25 18 -11 32 10 10 28 1 28 -15z m71 -30 c3 -6 2 -15
-3 -20 -13 -13 -43 -1 -43 17 0 16 36 19 46 3z m-78 -26 c-2 -10 -13 -19 -26
-21 -24 -4 -29 7 -10 26 18 18 40 15 36 -5z m-780 -18 c-6 -14 -13 -23 -15
-21 -5 5 15 46 22 46 3 0 -1 -11 -7 -25z m2771 -189 c50 -76 91 -141 91 -145
0 -7 -355 -240 -371 -244 -6 -1 -53 62 -105 141 l-94 143 188 124 c103 68 190
123 194 122 4 -1 47 -64 97 -141z m-1034 -152 c10 -15 13 -29 8 -33 -5 -3 -33
-21 -62 -40 l-53 -35 -19 25 c-10 13 -18 27 -16 31 2 8 108 77 118 78 4 0 14
-12 24 -26z m-1820 -15 c4 -6 -1 -16 -11 -24 -23 -16 -28 -13 -19 14 7 23 20
27 30 10z m1655 -69 c39 -39 11 -110 -44 -110 -25 0 -66 41 -66 67 0 21 46 63
70 63 11 0 29 -9 40 -20z"/>
</g>
</svg>
