<?xml version="1.0" standalone="no"?>
<!DOCTYPE svg PUBLIC "-//W3C//DTD SVG 20010904//EN"
 "http://www.w3.org/TR/2001/REC-SVG-20010904/DTD/svg10.dtd">
<svg version="1.0" xmlns="http://www.w3.org/2000/svg"
 width="512.000000pt" height="512.000000pt" viewBox="0 0 512.000000 512.000000"
 preserveAspectRatio="xMidYMid meet">
<metadata>
Created by potrace 1.11, written by Peter Selinger 2001-2013
</metadata>
<g transform="translate(0.000000,512.000000) scale(0.100000,-0.100000)"
fill="#000000" stroke="none">
<path d="M0 2560 l0 -2560 2560 0 2560 0 0 2560 0 2560 -2560 0 -2560 0 0
-2560z m2589 2015 c141 -20 252 -47 401 -97 124 -42 381 -164 386 -183 2 -5
-67 -55 -151 -110 -149 -96 -165 -110 -165 -141 0 -8 59 -104 130 -214 129
-198 152 -237 134 -228 -5 2 -52 25 -104 50 -141 69 -200 82 -360 83 -112 0
-149 -4 -217 -24 -46 -13 -83 -25 -83 -26 0 -2 95 -149 211 -327 116 -177 213
-328 216 -333 2 -6 -24 -31 -57 -55 -33 -24 -60 -47 -60 -50 0 -4 -19 -20 -42
-35 -33 -22 -54 -28 -102 -29 -96 -2 -146 -51 -146 -144 0 -40 6 -57 27 -83
30 -35 78 -59 118 -59 58 0 135 65 135 113 0 8 7 20 15 27 13 11 15 4 15 -51
l0 -64 93 -108 92 -109 120 7 c66 4 135 13 154 21 19 8 35 13 36 12 2 -2 47
-70 100 -153 54 -82 99 -152 101 -154 2 -3 17 8 33 23 l29 27 60 -105 61 -106
-34 -72 c-44 -91 -45 -126 -4 -173 28 -32 32 -43 37 -120 4 -75 9 -91 38 -137
25 -38 34 -64 34 -95 0 -53 14 -90 36 -95 21 -4 -163 -189 -281 -283 -300
-240 -685 -402 -1039 -435 -161 -16 -438 -13 -560 5 -459 68 -860 276 -1191
616 -164 168 -266 311 -363 504 -158 317 -239 733 -206 1054 l7 61 61 0 c41 0
70 6 86 17 39 26 41 36 11 54 -33 20 -68 74 -77 118 -4 18 -15 37 -24 43 -17
11 -16 15 2 82 11 39 33 105 48 146 26 70 28 73 35 45 10 -47 20 -59 54 -69
l31 -9 0 -80 c0 -67 4 -89 26 -132 40 -78 56 -95 97 -102 35 -5 37 -4 37 21 0
15 -18 61 -40 102 -27 51 -40 88 -40 115 0 61 26 51 40 -15 6 -30 29 -84 51
-121 22 -36 38 -72 36 -80 -3 -7 0 -21 7 -31 7 -11 13 -30 14 -44 2 -33 52
-102 86 -119 44 -21 156 -38 164 -24 4 6 19 9 35 6 20 -4 27 -11 27 -29 0 -24
5 -26 103 -50 16 -4 60 -38 101 -80 l73 -74 59 0 c32 0 65 -4 73 -9 7 -5 17
-30 22 -57 l10 -49 -56 -50 c-49 -44 -56 -55 -55 -87 0 -20 -5 -59 -11 -87
l-10 -50 61 -77 c34 -43 76 -102 92 -132 19 -33 41 -57 57 -63 14 -6 54 -28
89 -51 l62 -40 0 -174 c0 -162 1 -174 20 -187 19 -13 20 -19 9 -87 -11 -72
-11 -72 20 -122 28 -45 31 -57 31 -135 0 -78 3 -92 31 -142 44 -78 84 -127
142 -172 41 -33 56 -39 97 -39 93 0 103 21 39 86 l-42 43 12 45 c15 62 14 76
-8 76 -10 0 -29 8 -41 18 l-21 17 20 27 c27 34 27 65 0 73 -34 11 -16 26 67
57 90 32 108 46 155 115 18 27 54 75 80 109 l48 60 -12 68 c-9 57 -9 72 4 94
13 23 23 28 76 34 117 13 136 36 157 188 15 109 19 118 61 180 59 86 61 120 6
144 -24 12 -46 32 -60 57 l-22 39 -87 0 c-69 0 -104 6 -167 28 l-80 27 -5 55
c-3 30 -14 71 -26 90 -19 34 -22 35 -86 38 l-66 3 -32 49 c-32 49 -83 100
-101 100 -5 0 -18 -9 -29 -20 -32 -32 -91 -27 -135 11 -20 18 -58 37 -92 46
l-58 15 -55 -62 -56 -62 -76 12 -77 13 -6 56 c-13 128 -21 141 -79 141 -35 0
-39 12 -20 70 22 66 9 84 -39 56 -156 -93 -199 -99 -232 -35 -21 40 -19 58 14
131 48 108 97 133 277 143 l121 7 6 -40 c6 -35 12 -42 47 -56 22 -9 43 -16 46
-16 3 0 5 26 4 58 -1 31 -2 62 -1 69 0 7 31 33 69 59 90 64 111 84 127 119 21
49 83 113 166 171 43 30 99 74 126 98 39 35 54 43 76 39 26 -5 57 10 57 28 0
4 -10 11 -22 15 -38 11 -50 25 -37 40 17 20 53 17 74 -6 22 -24 73 -26 101 -5
36 28 74 14 39 -15 -8 -7 -15 -22 -15 -35 0 -26 34 -44 102 -52 47 -6 48 -5
48 21 0 21 -8 30 -45 48 -25 12 -45 26 -45 31 0 4 13 13 30 18 54 19 52 80 -5
123 -32 25 -35 31 -35 82 0 29 -2 54 -4 54 -2 0 -29 -11 -60 -25 -31 -14 -61
-25 -66 -25 -5 0 -12 22 -16 49 l-6 48 -70 13 c-65 11 -72 11 -97 -7 -22 -17
-28 -32 -36 -93 l-10 -72 -52 -20 c-42 -15 -57 -27 -75 -61 -33 -59 -52 -55
-58 12 l-5 55 -59 11 c-43 9 -66 20 -83 39 -45 53 -30 72 125 150 83 42 104
44 117 14 13 -31 43 -34 66 -9 11 12 26 21 34 21 17 0 19 12 5 26 -7 7 9 23
52 49 50 30 76 39 124 43 59 4 104 -8 104 -28 0 -5 -31 -26 -70 -46 -38 -21
-67 -40 -64 -43 3 -4 47 -16 97 -28 93 -21 117 -19 117 13 0 18 32 34 67 34
16 0 34 5 41 12 19 19 14 52 -10 63 -14 6 -24 21 -26 36 -4 37 -25 53 -117 90
-69 27 -88 31 -146 27 -39 -3 -84 -14 -106 -25 -33 -17 -39 -26 -44 -61 -7
-51 -11 -56 -42 -48 -37 9 -39 30 -6 76 17 23 28 45 24 48 -12 12 -143 6 -159
-7 -22 -19 -20 -48 4 -56 38 -12 19 -41 -35 -51 -22 -4 -49 -13 -60 -20 -20
-15 -72 -18 -99 -8 -9 3 -16 17 -16 30 0 21 4 24 40 24 30 0 48 7 75 31 60 53
40 78 -32 39 -58 -31 -88 -26 -132 21 -38 41 -39 42 -98 37 -49 -3 -69 -11
-116 -43 -31 -22 -57 -43 -57 -47 0 -5 24 -8 54 -8 52 0 55 -1 58 -27 3 -24 9
-28 52 -38 27 -5 51 -15 53 -22 7 -19 -98 -4 -122 17 -20 17 -63 31 -164 54
l-54 12 84 52 c241 150 530 255 813 297 127 18 456 18 585 0z m1309 -381 c73
-113 135 -211 137 -217 3 -10 -357 -253 -525 -355 l-38 -23 -142 217 c-106
163 -139 219 -128 225 7 4 132 86 278 183 146 96 270 175 275 175 6 0 70 -92
143 -205z m-2710 -91 c-2 -14 -15 -19 -57 -21 -40 -2 -52 0 -49 10 5 14 39 26
81 27 22 1 28 -3 25 -16z m3442 -195 c124 -188 137 -213 122 -223 -9 -7 -223
-146 -475 -310 -384 -249 -461 -295 -471 -284 -16 17 -256 387 -261 402 -3 9
926 626 943 627 2 0 65 -95 142 -212z m-3437 87 c1 -5 -20 -11 -48 -12 l-50
-2 35 14 c39 15 60 15 63 0z m167 -228 c0 -47 -55 -66 -66 -23 -8 34 2 46 37
46 24 0 29 -4 29 -23z m188 -149 c22 -18 -6 -28 -80 -28 -85 0 -92 21 -14 41
35 8 74 3 94 -13z m1534 -25 c116 -41 225 -110 330 -211 309 -297 414 -735
247 -1028 -16 -29 -35 -56 -42 -62 -9 -8 -117 151 -448 658 -340 521 -433 670
-420 674 9 3 68 4 131 2 98 -2 128 -7 202 -33z m-1477 7 c3 -5 1 -10 -4 -10
-6 0 -11 5 -11 10 0 6 2 10 4 10 3 0 8 -4 11 -10z m-115 -47 c0 -19 -77 -96
-88 -89 -20 12 -14 36 17 67 27 26 71 40 71 22z m116 -4 c8 -14 -31 -53 -45
-45 -12 8 -15 39 -4 49 10 11 41 8 49 -4z m89 1 c3 -5 -1 -10 -10 -10 -9 0
-13 5 -10 10 3 6 8 10 10 10 2 0 7 -4 10 -10z m13 -73 c3 -15 -2 -18 -30 -15
-22 2 -34 9 -36 21 -3 15 2 18 30 15 22 -2 34 -9 36 -21z m-110 -19 c-2 -6
-16 -21 -31 -32 -21 -15 -30 -17 -39 -8 -9 9 -7 16 7 32 19 22 69 28 63 8z
m-1185 -38 c-3 -12 -8 -19 -11 -16 -5 6 5 36 12 36 2 0 2 -9 -1 -20z m4177
-285 c102 -155 135 -213 126 -221 -19 -18 -557 -366 -560 -363 -22 26 -269
415 -270 425 -1 14 542 375 558 371 5 -2 70 -97 146 -212z m-1562 -224 l22
-38 -92 -61 -92 -61 -24 40 c-13 22 -21 43 -18 46 16 16 162 112 172 112 6 1
20 -16 32 -38z m-2739 -25 c9 -11 6 -17 -14 -30 -24 -16 -25 -16 -25 7 0 37
18 48 39 23z m2499 -112 c64 -73 -20 -184 -107 -140 -36 19 -51 44 -51 83 0
83 102 120 158 57z"/>
</g>
</svg>
